<svg width="840" height="182" viewBox="0 0 840 182" fill="none" xmlns="http://www.w3.org/2000/svg">
<g clip-path="url(#clip0_8_3)">
<path d="M17.0734 144V46.28H28.8334V133.78H75.1734V144H17.0734ZM130.699 55.8C127.432 55.8 125.145 55.1467 123.839 53.84C122.532 52.44 121.879 50.7133 121.879 48.66V46.42C121.879 44.3667 122.532 42.6867 123.839 41.38C125.145 39.98 127.432 39.28 130.699 39.28C133.965 39.28 136.252 39.98 137.559 41.38C138.865 42.6867 139.519 44.3667 139.519 46.42V48.66C139.519 50.7133 138.865 52.44 137.559 53.84C136.252 55.1467 133.965 55.8 130.699 55.8ZM99.0588 134.48H125.099V81.28H99.0588V71.76H136.299V134.48H160.659V144H99.0588V134.48ZM181.884 144V71.76H193.084V83.52H193.644C194.391 81.7467 195.324 80.0667 196.444 78.48C197.564 76.8 198.917 75.3533 200.504 74.14C202.184 72.9267 204.144 71.9467 206.384 71.2C208.624 70.4533 211.237 70.08 214.224 70.08C221.784 70.08 227.851 72.5067 232.424 77.36C236.997 82.12 239.284 88.8867 239.284 97.66V144H228.084V99.62C228.084 92.9933 226.637 88.0933 223.744 84.92C220.851 81.6533 216.604 80.02 211.004 80.02C208.764 80.02 206.571 80.3 204.424 80.86C202.277 81.42 200.364 82.26 198.684 83.38C197.004 84.5 195.651 85.9467 194.624 87.72C193.597 89.4933 193.084 91.5467 193.084 93.88V144H181.884ZM266.809 40.4H278.009V105.78H278.569L291.169 93.88L315.249 71.76H328.969L299.009 100.04L332.469 144H318.609L290.469 106.48L278.009 117.82V144H266.809V40.4ZM379.315 145.68C374.088 145.68 369.375 144.793 365.175 143.02C361.068 141.247 357.521 138.727 354.535 135.46C351.641 132.1 349.401 128.133 347.815 123.56C346.228 118.893 345.435 113.713 345.435 108.02C345.435 102.233 346.228 97.0067 347.815 92.34C349.495 87.6733 351.781 83.7067 354.675 80.44C357.568 77.08 361.021 74.5133 365.035 72.74C369.141 70.9667 373.668 70.08 378.615 70.08C383.468 70.08 387.855 70.9667 391.775 72.74C395.788 74.5133 399.195 76.9867 401.995 80.16C404.795 83.24 406.941 86.9267 408.435 91.22C409.928 95.5133 410.675 100.227 410.675 105.36V110.68H357.195V114.04C357.195 117.213 357.708 120.153 358.735 122.86C359.761 125.567 361.208 127.9 363.075 129.86C365.035 131.82 367.368 133.36 370.075 134.48C372.875 135.507 375.955 136.02 379.315 136.02C384.168 136.02 388.368 134.9 391.915 132.66C395.461 130.42 398.168 127.34 400.035 123.42L408.295 129.02C406.148 133.873 402.555 137.887 397.515 141.06C392.568 144.14 386.501 145.68 379.315 145.68ZM378.615 79.32C375.535 79.32 372.688 79.88 370.075 81C367.461 82.12 365.175 83.66 363.215 85.62C361.348 87.58 359.855 89.9133 358.735 92.62C357.708 95.2333 357.195 98.1267 357.195 101.3V102.28H398.635V100.74C398.635 97.5667 398.121 94.6733 397.095 92.06C396.161 89.4467 394.808 87.2067 393.035 85.34C391.355 83.38 389.255 81.8867 386.735 80.86C384.308 79.8333 381.601 79.32 378.615 79.32ZM479.5 132.24H478.94C474.273 141.2 466.853 145.68 456.68 145.68C447.813 145.68 440.86 142.367 435.82 135.74C430.873 129.113 428.4 119.827 428.4 107.88C428.4 95.9333 430.873 86.6467 435.82 80.02C440.86 73.3933 447.813 70.08 456.68 70.08C466.853 70.08 474.273 74.56 478.94 83.52H479.5V40.4H490.7V144H479.5V132.24ZM461.02 135.74C463.54 135.74 465.92 135.413 468.16 134.76C470.4 134.107 472.36 133.173 474.04 131.96C475.72 130.653 477.027 129.113 477.96 127.34C478.987 125.473 479.5 123.327 479.5 120.9V94.86C479.5 92.4333 478.987 90.3333 477.96 88.56C477.027 86.6933 475.72 85.1533 474.04 83.94C472.36 82.6333 470.4 81.6533 468.16 81C465.92 80.3467 463.54 80.02 461.02 80.02C454.487 80.02 449.4 82.0267 445.76 86.04C442.213 89.96 440.44 95.1867 440.44 101.72V114.04C440.44 120.573 442.213 125.847 445.76 129.86C449.4 133.78 454.487 135.74 461.02 135.74ZM545.945 145.68C540.719 145.68 536.939 144.56 534.605 142.32C532.365 139.987 531.245 137.233 531.245 134.06V129.16C531.245 125.987 532.365 123.28 534.605 121.04C536.939 118.707 540.719 117.54 545.945 117.54C551.172 117.54 554.905 118.707 557.145 121.04C559.479 123.28 560.645 125.987 560.645 129.16V134.06C560.645 137.233 559.479 139.987 557.145 142.32C554.905 144.56 551.172 145.68 545.945 145.68ZM648.791 144L642.631 120.48H615.891L609.871 144H588.591L615.051 46.28H644.731L671.191 144H648.791ZM629.891 66.58H628.771L619.251 103.54H639.411L629.891 66.58ZM682.196 127.9H698.856V87.86H682.196V71.76H719.576V92.2H720.556C721.209 89.5867 722.096 87.0667 723.216 84.64C724.429 82.12 725.923 79.9267 727.696 78.06C729.563 76.1 731.803 74.56 734.416 73.44C737.029 72.32 740.109 71.76 743.656 71.76H750.516V90.8H735.116C729.983 90.8 726.109 92.34 723.496 95.42C720.883 98.4067 719.576 102.093 719.576 106.48V127.9H743.376V144H682.196V127.9ZM803.381 144C795.915 144 790.361 142.04 786.721 138.12C783.081 134.2 781.261 129.207 781.261 123.14V87.86H761.661V71.76H774.401C777.481 71.76 779.675 71.1533 780.981 69.94C782.288 68.7267 782.941 66.4867 782.941 63.22V46.28H801.981V71.76H830.121V87.86H801.981V127.9H830.121V144H803.381Z" fill="white"/>
<path d="M0.273438 167.8H503.945V176.2H0.273438V167.8Z" fill="white"/>
<path d="M503.945 165H839.781V179H503.945V165Z" fill="white"/>
</g>
<defs>
<clipPath id="clip0_8_3">
<rect width="840" height="182" fill="white"/>
</clipPath>
</defs>
</svg>
