<svg width="816" height="182" viewBox="0 0 816 182" fill="none" xmlns="http://www.w3.org/2000/svg">
<circle cx="533" cy="108" r="15" fill="white" />
<path d="M13.1456 144V46.28H34.2856V126.78H76.2856V144H13.1456ZM130.691 55.8C127.424 55.8 125.138 55.1467 123.831 53.84C122.524 52.44 121.871 50.7133 121.871 48.66V46.42C121.871 44.3667 122.524 42.6867 123.831 41.38C125.138 39.98 127.424 39.28 130.691 39.28C133.958 39.28 136.244 39.98 137.551 41.38C138.858 42.6867 139.511 44.3667 139.511 46.42V48.66C139.511 50.7133 138.858 52.44 137.551 53.84C136.244 55.1467 133.958 55.8 130.691 55.8ZM99.0509 134.48H125.091V81.28H99.0509V71.76H136.291V134.48H160.651V144H99.0509V134.48ZM177.256 144V71.76H197.976V84.92H198.816C199.656 82.8667 200.683 80.9533 201.896 79.18C203.11 77.4067 204.556 75.8667 206.236 74.56C208.01 73.16 210.016 72.0867 212.256 71.34C214.59 70.5 217.203 70.08 220.096 70.08C223.55 70.08 226.723 70.6867 229.616 71.9C232.51 73.02 234.983 74.7467 237.036 77.08C239.09 79.4133 240.676 82.26 241.796 85.62C243.01 88.98 243.616 92.8533 243.616 97.24V144H222.896V100.04C222.896 90.7067 218.836 86.04 210.716 86.04C209.13 86.04 207.543 86.2733 205.956 86.74C204.463 87.1133 203.11 87.7667 201.896 88.7C200.683 89.54 199.703 90.6133 198.956 91.92C198.303 93.2267 197.976 94.7667 197.976 96.54V144H177.256ZM261.202 40.4H281.922V99.2H282.902L292.562 87.86L307.682 71.76H331.482L303.482 100.32L334.422 144H309.782L288.782 112.08L281.922 118.94V144H261.202V40.4ZM379.307 145.68C374.08 145.68 369.367 144.793 365.167 143.02C361.06 141.247 357.514 138.727 354.527 135.46C351.634 132.1 349.394 128.133 347.807 123.56C346.22 118.893 345.427 113.713 345.427 108.02C345.427 102.233 346.22 97.0067 347.807 92.34C349.487 87.6733 351.774 83.7067 354.667 80.44C357.56 77.08 361.014 74.5133 365.027 72.74C369.134 70.9667 373.66 70.08 378.607 70.08C383.46 70.08 387.847 70.9667 391.767 72.74C395.78 74.5133 399.187 76.9867 401.987 80.16C404.787 83.24 406.934 86.9267 408.427 91.22C409.92 95.5133 410.667 100.227 410.667 105.36V110.68H357.187V114.04C357.187 117.213 357.7 120.153 358.727 122.86C359.754 125.567 361.2 127.9 363.067 129.86C365.027 131.82 367.36 133.36 370.067 134.48C372.867 135.507 375.947 136.02 379.307 136.02C384.16 136.02 388.36 134.9 391.907 132.66C395.454 130.42 398.16 127.34 400.027 123.42L408.287 129.02C406.14 133.873 402.547 137.887 397.507 141.06C392.56 144.14 386.494 145.68 379.307 145.68ZM378.607 79.32C375.527 79.32 372.68 79.88 370.067 81C367.454 82.12 365.167 83.66 363.207 85.62C361.34 87.58 359.847 89.9133 358.727 92.62C357.7 95.2333 357.187 98.1267 357.187 101.3V102.28H398.627V100.74C398.627 97.5667 398.114 94.6733 397.087 92.06C396.154 89.4467 394.8 87.2067 393.027 85.34C391.347 83.38 389.247 81.8867 386.727 80.86C384.3 79.8333 381.594 79.32 378.607 79.32ZM475.012 130.84H474.032C472.166 135.227 469.552 138.82 466.192 141.62C462.926 144.327 458.399 145.68 452.612 145.68C448.599 145.68 444.912 144.933 441.552 143.44C438.286 141.947 435.439 139.66 433.012 136.58C430.679 133.5 428.812 129.58 427.412 124.82C426.106 120.06 425.452 114.413 425.452 107.88C425.452 101.347 426.106 95.7 427.412 90.94C428.812 86.18 430.679 82.26 433.012 79.18C435.439 76.1 438.286 73.8133 441.552 72.32C444.912 70.8267 448.599 70.08 452.612 70.08C455.506 70.08 458.072 70.4533 460.312 71.2C462.552 71.9467 464.512 72.9733 466.192 74.28C467.966 75.5867 469.459 77.1733 470.672 79.04C471.979 80.8133 473.099 82.7733 474.032 84.92H475.012V40.4H495.732V144H475.012V130.84ZM461.572 129.58C465.212 129.58 468.339 128.693 470.952 126.92C473.659 125.147 475.012 122.347 475.012 118.52V97.24C475.012 93.4133 473.659 90.6133 470.952 88.84C468.339 87.0667 465.212 86.18 461.572 86.18C456.906 86.18 453.312 87.6267 450.792 90.52C448.272 93.32 447.012 97.24 447.012 102.28V113.48C447.012 118.52 448.272 122.487 450.792 125.38C453.312 128.18 456.906 129.58 461.572 129.58ZM619.898 144L617.518 120.34H590.078L580.418 144H558.718L601.698 46.28H630.538L641.178 144H619.898ZM613.738 66.58H612.478L597.078 103.54H616.678L613.738 66.58ZM672.764 144L683.264 81.14H662.964L664.504 71.76H695.724L692.504 91.08H693.204C694.417 88.1867 695.817 85.5733 697.404 83.24C698.99 80.8133 700.81 78.76 702.864 77.08C705.01 75.4 707.437 74.0933 710.144 73.16C712.85 72.2267 715.93 71.76 719.384 71.76H730.304L728.484 82.68H716.164C711.964 82.68 708.464 83.2867 705.664 84.5C702.864 85.62 700.39 87.44 698.244 89.96C697.777 90.52 697.124 91.3133 696.284 92.34C695.537 93.2733 694.744 94.44 693.904 95.84C693.064 97.24 692.27 98.8267 691.524 100.6C690.87 102.373 690.357 104.287 689.984 106.34L683.684 144H672.764ZM765.249 145.68C761.982 145.68 759.416 144.793 757.549 143.02C755.776 141.247 754.889 138.68 754.889 135.32C754.889 134.667 754.889 133.78 754.889 132.66C754.982 131.54 755.122 130.607 755.309 129.86L763.709 81.14H742.849L744.389 71.76H759.089C761.516 71.76 763.289 71.2933 764.409 70.36C765.622 69.3333 766.462 67.6067 766.929 65.18L770.149 46.28H780.509L776.169 71.76H805.989L804.449 81.14H774.629L765.669 134.62L768.469 136.3L799.969 115.3L805.429 122.3L789.609 133.5C786.342 135.833 783.496 137.793 781.069 139.38C778.736 140.873 776.589 142.087 774.629 143.02C772.762 143.953 771.082 144.607 769.589 144.98C768.096 145.447 766.649 145.68 765.249 145.68Z" fill="white" />
</svg>
